<svg width="48" height="48" viewBox="0 0 48 48" fill="none" xmlns="http://www.w3.org/2000/svg">
<g id="Icon/Social/Outline/Behance">
<path id="Icon Color" fill-rule="evenodd" clip-rule="evenodd" d="M24 4C35.0457 4 44 12.9543 44 24C44 35.0457 35.0457 44 24 44C12.9543 44 4 35.0457 4 24C4 12.9543 12.9543 4 24 4ZM24 5.5C13.7827 5.5 5.5 13.7827 5.5 24C5.5 34.2173 13.7827 42.5 24 42.5C34.2173 42.5 42.5 34.2173 42.5 24C42.5 13.7827 34.2173 5.5 24 5.5ZM23.2308 20.8824C23.2308 18.7382 21.5088 17 19.3846 17H14.7692L14.6649 17.0071C14.2894 17.0585 14 17.3834 14 17.7765V23.9883V30.2002L14.007 30.3056C14.058 30.6846 14.3798 30.9767 14.7692 30.9767H19.3846L19.5889 30.9713C21.6181 30.8641 23.2308 29.1693 23.2308 27.0943L23.2254 26.8881C23.1653 25.7274 22.6001 24.7016 21.7474 24.0307L21.6903 23.9883L21.7474 23.946C22.6502 23.2356 23.2308 22.1274 23.2308 20.8824ZM15.5385 29.4237V24.7648H19.3846L19.5426 24.7702C20.7434 24.8522 21.6923 25.8614 21.6923 27.0943L21.687 27.2538C21.6058 28.4659 20.606 29.4237 19.3846 29.4237H15.5385ZM19.3846 23.2119C19.395 23.2119 19.4053 23.2121 19.4155 23.2125L19.5426 23.2065C20.7434 23.1245 21.6923 22.1153 21.6923 20.8824C21.6923 19.6495 20.7434 18.6403 19.5426 18.5583L19.3846 18.553H15.5385V23.2119H19.3846ZM29.641 20.6236C32.0484 20.6236 34 22.5936 34 25.0237C34 25.4168 33.7106 25.7416 33.3351 25.793L33.2308 25.8001H26.8205V27.0353L26.8448 27.1739C27.0689 28.2747 27.9163 29.1409 29.004 29.3809L29.1874 29.4151C30.4243 29.6031 31.6361 28.9463 32.1642 27.8018C32.3436 27.413 32.8012 27.2446 33.1863 27.4257C33.5714 27.6068 33.7382 28.0687 33.5588 28.4574C32.7427 30.2263 30.8698 31.2413 28.9583 30.9507C27.1175 30.6709 25.6643 29.2447 25.3236 27.4133L25.2892 27.2003L25.2821 27.0943V25.0237C25.2821 22.5936 27.2336 20.6236 29.641 20.6236ZM29.641 22.1766C28.3718 22.1766 27.2983 23.0228 26.9443 24.1869L26.9272 24.2472H32.3538L32.3378 24.1869C31.9998 23.0758 31.0064 22.2541 29.8128 22.1817L29.641 22.1766ZM31.1795 17C31.6043 17 31.9487 17.3476 31.9487 17.7765C31.9487 18.1696 31.6593 18.4945 31.2839 18.5459L31.1795 18.553H28.1026C27.6777 18.553 27.3333 18.2053 27.3333 17.7765C27.3333 17.3834 27.6227 17.0585 27.9982 17.0071L28.1026 17H31.1795Z" fill="#212121"/>
</g>
</svg>
