<svg width="48" height="48" viewBox="0 0 48 48" fill="none" xmlns="http://www.w3.org/2000/svg">
<g id="Icon/Social/Outline/Instagram">
<path id="Icon Color" fill-rule="evenodd" clip-rule="evenodd" d="M24 4C35.0457 4 44 12.9543 44 24C44 35.0457 35.0457 44 24 44C12.9543 44 4 35.0457 4 24C4 12.9543 12.9543 4 24 4ZM24 5.5C13.7827 5.5 5.5 13.7827 5.5 24C5.5 34.2173 13.7827 42.5 24 42.5C34.2173 42.5 42.5 34.2173 42.5 24C42.5 13.7827 34.2173 5.5 24 5.5ZM34 19.4286C34 16.4305 31.5695 14 28.5714 14H19.4286C16.4305 14 14 16.4305 14 19.4286V28.5714C14 31.5695 16.4305 34 19.4286 34H28.5714C31.5695 34 34 31.5695 34 28.5714V19.4286ZM15.7143 19.4286C15.7143 17.3772 17.3772 15.7143 19.4286 15.7143H28.5714C30.6228 15.7143 32.2857 17.3772 32.2857 19.4286V28.5714C32.2857 30.6228 30.6228 32.2857 28.5714 32.2857H19.4286C17.3772 32.2857 15.7143 30.6228 15.7143 28.5714V19.4286ZM24 19.7143C21.6331 19.7143 19.7143 21.6331 19.7143 24C19.7143 26.3669 21.6331 28.2857 24 28.2857C26.3669 28.2857 28.2857 26.3669 28.2857 24C28.2857 21.6331 26.3669 19.7143 24 19.7143ZM24 21.4286C25.4202 21.4286 26.5714 22.5798 26.5714 24C26.5714 25.4202 25.4202 26.5714 24 26.5714C22.5798 26.5714 21.4286 25.4202 21.4286 24C21.4286 22.5798 22.5798 21.4286 24 21.4286ZM29.1429 18C29.5768 18 29.9354 18.3225 29.9922 18.7408L30 18.8571C30 19.3317 29.6162 19.7154 29.1429 19.7154C28.7089 19.7154 28.3503 19.393 28.2935 18.9746L28.2857 18.8583C28.2857 18.3838 28.6695 18 29.1429 18Z" fill="#212121"/>
</g>
</svg>
