<svg width="22" height="22" viewBox="0 0 22 22" fill="none" xmlns="http://www.w3.org/2000/svg">
<g id="Icon">
<path id="Icon Color" fill-rule="evenodd" clip-rule="evenodd" d="M5.18481 8.53638C7.03583 8.53638 8.53638 7.03583 8.53638 5.18481C8.53638 3.3338 7.03583 1.83325 5.18481 1.83325C3.3338 1.83325 1.83325 3.3338 1.83325 5.18481C1.83325 7.03583 3.3338 8.53638 5.18481 8.53638ZM5.18481 19.7083C7.03583 19.7083 8.53638 18.2077 8.53638 16.3567C8.53638 14.5057 7.03583 13.0051 5.18481 13.0051C3.3338 13.0051 1.83325 14.5057 1.83325 16.3567C1.83325 18.2077 3.3338 19.7083 5.18481 19.7083ZM19.7083 5.18481C19.7083 7.03583 18.2077 8.53638 16.3567 8.53638C14.5057 8.53638 13.0051 7.03583 13.0051 5.18481C13.0051 3.3338 14.5057 1.83325 16.3567 1.83325C18.2077 1.83325 19.7083 3.3338 19.7083 5.18481ZM16.3567 19.7083C18.2077 19.7083 19.7083 18.2077 19.7083 16.3567C19.7083 14.5057 18.2077 13.0051 16.3567 13.0051C14.5057 13.0051 13.0051 14.5057 13.0051 16.3567C13.0051 18.2077 14.5057 19.7083 16.3567 19.7083Z" fill="white"/>
</g>
</svg>
